<?xml version="1.0" encoding="UTF-8" standalone="no"?>
<!-- Created with Inkscape (http://www.inkscape.org/) -->

<svg
   version="1.1"
   id="svg1"
   width="6000"
   height="4000"
   viewBox="0 0 6000 4000"
   sodipodi:docname="AbundantLifeLogo_clean.svg"
   inkscape:version="1.3.2 (091e20e, 2023-11-25, custom)"
   xml:space="preserve"
   xmlns:inkscape="http://www.inkscape.org/namespaces/inkscape"
   xmlns:sodipodi="http://sodipodi.sourceforge.net/DTD/sodipodi-0.dtd"
   xmlns:xlink="http://www.w3.org/1999/xlink"
   xmlns="http://www.w3.org/2000/svg"
   xmlns:svg="http://www.w3.org/2000/svg"><defs
     id="defs1"><linearGradient
       id="swatch172"
       inkscape:swatch="solid"><stop
         style="stop-color:#ffffff;stop-opacity:1;"
         offset="0"
         id="stop172" /></linearGradient><linearGradient
       id="swatch171"
       inkscape:swatch="solid"><stop
         style="stop-color:#ffffff;stop-opacity:1;"
         offset="0"
         id="stop171" /></linearGradient><linearGradient
       id="swatch160"
       inkscape:swatch="solid"><stop
         style="stop-color:#ffffff;stop-opacity:1;"
         offset="0"
         id="stop160" /></linearGradient><linearGradient
       id="swatch159"
       inkscape:swatch="solid"><stop
         style="stop-color:#ffffff;stop-opacity:1;"
         offset="0"
         id="stop159" /></linearGradient><linearGradient
       id="swatch158"
       inkscape:swatch="solid"><stop
         style="stop-color:#ffffff;stop-opacity:1;"
         offset="0"
         id="stop158" /></linearGradient><linearGradient
       id="swatch151"
       inkscape:swatch="solid"><stop
         style="stop-color:#276235;stop-opacity:1;"
         offset="0"
         id="stop151" /></linearGradient><linearGradient
       id="swatch150"
       inkscape:swatch="solid"><stop
         style="stop-color:#276235;stop-opacity:1;"
         offset="0"
         id="stop150" /></linearGradient><linearGradient
       id="swatch149"
       inkscape:swatch="solid"><stop
         style="stop-color:#276235;stop-opacity:1;"
         offset="0"
         id="stop149" /></linearGradient><linearGradient
       id="swatch148"
       inkscape:swatch="solid"><stop
         style="stop-color:#276235;stop-opacity:1;"
         offset="0"
         id="stop148" /></linearGradient><linearGradient
       id="swatch147"
       inkscape:swatch="solid"><stop
         style="stop-color:#e1c9af;stop-opacity:1;"
         offset="0"
         id="stop147" /></linearGradient><linearGradient
       id="swatch146"
       inkscape:swatch="solid"><stop
         style="stop-color:#c49a6c;stop-opacity:1;"
         offset="0"
         id="stop146" /></linearGradient><linearGradient
       id="swatch145"
       inkscape:swatch="solid"><stop
         style="stop-color:#dec7ac;stop-opacity:1;"
         offset="0"
         id="stop145" /></linearGradient><linearGradient
       id="swatch144"
       inkscape:swatch="solid"><stop
         style="stop-color:#75bf43;stop-opacity:1;"
         offset="0"
         id="stop144" /></linearGradient><linearGradient
       id="swatch143"
       inkscape:swatch="solid"><stop
         style="stop-color:#ffd099;stop-opacity:1;"
         offset="0"
         id="stop143" /></linearGradient><linearGradient
       id="swatch142"
       inkscape:swatch="solid"><stop
         style="stop-color:#ffe7ca;stop-opacity:1;"
         offset="0"
         id="stop142" /></linearGradient><linearGradient
       id="swatch119"
       inkscape:swatch="solid"><stop
         style="stop-color:#0f5640;stop-opacity:1;"
         offset="0"
         id="stop119" /></linearGradient><linearGradient
       id="swatch118"
       inkscape:swatch="solid"><stop
         style="stop-color:#0f5640;stop-opacity:1;"
         offset="0"
         id="stop118" /></linearGradient><linearGradient
       id="swatch116"
       inkscape:swatch="solid"><stop
         style="stop-color:#000000;stop-opacity:1;"
         offset="0"
         id="stop116" /></linearGradient><linearGradient
       id="swatch109"
       inkscape:swatch="solid"><stop
         style="stop-color:#ffffff;stop-opacity:1;"
         offset="0"
         id="stop109" /></linearGradient><linearGradient
       id="swatch108"
       inkscape:swatch="solid"><stop
         style="stop-color:#e59797;stop-opacity:0;"
         offset="0"
         id="stop108" /></linearGradient><linearGradient
       id="swatch79"
       inkscape:swatch="solid"
       gradientTransform="matrix(0.57785843,0,0,0.57785843,26636.505,21099.541)"><stop
         style="stop-color:#006847;stop-opacity:1;"
         offset="0"
         id="stop79" /></linearGradient><linearGradient
       id="swatch78"
       inkscape:swatch="solid"><stop
         style="stop-color:#006847;stop-opacity:1;"
         offset="0"
         id="stop78" /></linearGradient><linearGradient
       id="swatch76"
       inkscape:swatch="solid"
       gradientTransform="translate(-80)"><stop
         style="stop-color:#66cc9e;stop-opacity:1;"
         offset="0"
         id="stop76" /></linearGradient><linearGradient
       id="swatch22"
       inkscape:swatch="solid"><stop
         style="stop-color:#276235;stop-opacity:1;"
         offset="0"
         id="stop22" /></linearGradient><linearGradient
       id="swatch10"
       inkscape:swatch="solid"><stop
         style="stop-color:#0f5640;stop-opacity:1;"
         offset="0"
         id="stop10" /></linearGradient><linearGradient
       id="swatch57"
       inkscape:swatch="solid"><stop
         style="stop-color:#ffffff;stop-opacity:1;"
         offset="0"
         id="stop57" /></linearGradient><linearGradient
       id="swatch56"
       inkscape:swatch="solid"><stop
         style="stop-color:#c4916c;stop-opacity:1;"
         offset="0"
         id="stop56" /></linearGradient><linearGradient
       id="swatch55"
       inkscape:swatch="solid"><stop
         style="stop-color:#dec1ac;stop-opacity:1;"
         offset="0"
         id="stop55" /></linearGradient><linearGradient
       id="swatch54"
       inkscape:swatch="solid"
       gradientTransform="matrix(0.29964952,0.17318279,-0.58608525,1.1421402,20437.612,82396.82)"><stop
         style="stop-color:#006747;stop-opacity:1;"
         offset="0"
         id="stop54" /></linearGradient><linearGradient
       inkscape:collect="always"
       xlink:href="#swatch54"
       id="linearGradient12"
       gradientUnits="userSpaceOnUse"
       gradientTransform="matrix(1.0609091,0,0,1.0609091,12294.006,15426.24)" /><linearGradient
       inkscape:collect="always"
       xlink:href="#swatch54"
       id="linearGradient117"
       gradientTransform="matrix(0.29964952,0.17318279,-0.58608525,1.1421402,20437.612,82396.82)"
       gradientUnits="userSpaceOnUse" /><linearGradient
       inkscape:collect="always"
       xlink:href="#swatch54"
       id="linearGradient118"
       x1="2988.0542"
       y1="2781.782"
       x2="4142.0332"
       y2="2781.782"
       gradientUnits="userSpaceOnUse" /><linearGradient
       inkscape:collect="always"
       xlink:href="#swatch54"
       id="linearGradient119"
       x1="2715.8889"
       y1="2998.896"
       x2="4431.1494"
       y2="2998.896"
       gradientUnits="userSpaceOnUse" /><linearGradient
       inkscape:collect="always"
       xlink:href="#swatch55"
       id="linearGradient145"
       x1="2288.2446"
       y1="2179.0073"
       x2="4479.0879"
       y2="2179.0073"
       gradientUnits="userSpaceOnUse" /><linearGradient
       inkscape:collect="always"
       xlink:href="#swatch56"
       id="linearGradient146"
       x1="1469.9819"
       y1="2170.7715"
       x2="3213.2151"
       y2="2170.7715"
       gradientUnits="userSpaceOnUse" /><linearGradient
       inkscape:collect="always"
       xlink:href="#swatch55"
       id="linearGradient191"
       gradientUnits="userSpaceOnUse"
       x1="2529.1545"
       y1="2188.3728"
       x2="4479.0869"
       y2="2188.3728" /><linearGradient
       inkscape:collect="always"
       xlink:href="#swatch56"
       id="linearGradient192"
       gradientUnits="userSpaceOnUse"
       x1="1469.9819"
       y1="2170.7715"
       x2="3213.2151"
       y2="2170.7715" /><linearGradient
       inkscape:collect="always"
       xlink:href="#swatch54"
       id="linearGradient194"
       gradientUnits="userSpaceOnUse"
       x1="466.0975"
       y1="2504.9749"
       x2="5476.666"
       y2="2504.9749" /></defs><sodipodi:namedview
     id="namedview1"
     pagecolor="#e1e1e1"
     bordercolor="#000000"
     borderopacity="0.25"
     inkscape:showpageshadow="2"
     inkscape:pageopacity="0.0"
     inkscape:pagecheckerboard="false"
     inkscape:deskcolor="#929292"
     inkscape:zoom="0.049550436"
     inkscape:cx="5711.3524"
     inkscape:cy="1886.9662"
     inkscape:window-width="1920"
     inkscape:window-height="1027"
     inkscape:window-x="-8"
     inkscape:window-y="-8"
     inkscape:window-maximized="1"
     inkscape:current-layer="g1"
     showgrid="true"
     showguides="true"
     labelstyle="default"
     inkscape:clip-to-page="false"
     inkscape:export-bgcolor="#ffffff00"><inkscape:grid
       id="grid9"
       units="px"
       originx="500"
       originy="500"
       spacingx="500"
       spacingy="500"
       empcolor="#005f8e"
       empopacity="0.37647059"
       color="#e50000"
       opacity="0.1254902"
       empspacing="2"
       dotted="false"
       gridanglex="30"
       gridanglez="30"
       visible="true" /><inkscape:page
       x="0"
       y="0"
       width="6000"
       height="4000"
       id="page39"
       margin="0"
       bleed="0"
       inkscape:export-filename="AbundantLife-Logo.svg"
       inkscape:export-xdpi="96"
       inkscape:export-ydpi="96"
       inkscape:label="AbundantLife-logo" /><inkscape:grid
       id="grid172"
       units="px"
       originx="500"
       originy="500"
       spacingx="250"
       spacingy="250"
       empcolor="#0099e5"
       empopacity="0.30196078"
       color="#0099e5"
       opacity="0.14901961"
       empspacing="5"
       dotted="false"
       gridanglex="30"
       gridanglez="30"
       visible="true" /><inkscape:page
       x="1.2475482"
       y="8508.8213"
       width="6750"
       height="1500"
       id="page179"
       margin="0"
       bleed="0"
       inkscape:label="AbundantLife-Logo_landscapeWhite" /></sodipodi:namedview><g
     inkscape:groupmode="layer"
     inkscape:label="Image"
     id="g1"
     transform="translate(-6007.7483,-7994.305)"><g
       id="g35"
       inkscape:label="Logo01"
       transform="translate(6025.592,7208.2913)"><path
         id="path29"
         clip-path="none"
         mask="none"
         style="display:inline;fill:url(#linearGradient145);fill-opacity:1;stroke:none;stroke-width:14.9994;stroke-linecap:round;stroke-linejoin:round;stroke-miterlimit:3.5;stroke-dasharray:1.49994, 59.9975;stroke-dashoffset:0;stroke-opacity:1"
         inkscape:label="Sun2"
         d="m 3211.5783,1304.4766 c -203.4342,253.1564 -483.7187,616.6992 -655.8663,904.7829 -124.7679,208.7952 -210.1951,415.0648 -267.4674,583.4459 225.2204,-45.8929 455.0675,-69.661 686.2979,-70.0873 511.1826,0.045 1016.043,113.0455 1478.4695,330.9198 9.6229,-50.9293 16.2739,-102.3256 20.591,-153.927 -99.4059,-32.402 -216.0455,-67.027 -352.4301,-100.3037 -356.4072,-86.9601 -912.401,-105.48 -912.401,-105.48 0,0 81.3281,-8.5008 220.1976,-9.1948 178.5465,-0.8925 452.2153,11.1173 770.448,70.6807 111.7478,20.9157 203.011,44.3963 278.5667,68.5745 0.3739,-11.3138 0.9851,-22.6158 1.1036,-33.9401 0,-23.8418 -0.6425,-47.6154 -1.7669,-71.3227 -313.2704,-49.2071 -652.4431,-63.9819 -652.4431,-63.9819 0,0 109.0302,-14.0142 275.8922,-14.3964 105.3961,-0.2415 233.9232,5.0319 372.5654,22.635 -29.8745,-352.4624 -182.882,-684.7762 -434.9201,-936.8146 -225.6481,-225.6481 -515.6582,-371.9316 -826.837,-421.5903 z" /><path
         id="path30"
         clip-path="none"
         mask="none"
         style="display:inline;fill:url(#linearGradient146);fill-opacity:1;stroke:none;stroke-width:14.9994;stroke-linecap:round;stroke-linejoin:round;stroke-miterlimit:3.5;stroke-dasharray:1.49994, 59.9975;stroke-dashoffset:0;stroke-opacity:1"
         inkscape:label="Sun"
         d="m 2974.5348,1285.3945 c -399.0315,0 -781.7207,158.5145 -1063.8786,440.6724 -282.1578,282.158 -440.6744,664.8492 -440.6743,1063.8806 0.9589,89.3486 9.8754,178.4347 26.6439,266.2009 146.612,-69.3934 297.6366,-127.7864 451.6942,-175.7302 21.7765,-44.034 45.6547,-91.2008 73.0585,-142.8121 -64.9098,-114.7796 -51.4386,-222.3673 -2.5678,-349.4957 54.4326,-141.5969 95.7285,-59.4824 126.9301,-16.6307 31.2015,42.8515 67.5899,105.6303 80.3721,162.1134 198.0111,-392.065 442.2388,-798.5909 837.5621,-1169.9268 25.9,-24.3284 50.8431,-47.0925 75.0329,-68.8209 -54.2742,-6.0541 -109.0319,-9.4509 -164.1731,-9.4509 z m 221.8053,16.9856 c -159.3355,184.3193 -382.4309,462.9879 -568.6401,777.847 -167.9376,283.9643 -298.8377,539.8144 -387.1383,722.701 38.4823,-8.3964 77.0903,-16.2178 115.8424,-23.31 41.3504,-169.762 110.2142,-368.6695 226.4522,-563.1904 173.6559,-290.6076 440.491,-658.3095 630.3589,-911.664 -5.6029,-0.9006 -11.2592,-1.5431 -16.8751,-2.3836 z" /><path
         style="fill:url(#linearGradient119);fill-opacity:1;stroke:none;stroke-width:8.54025;stroke-linecap:round;stroke-linejoin:round;stroke-miterlimit:3.5;stroke-dasharray:0.854025, 12.8104;stroke-dashoffset:0;stroke-opacity:1"
         d="m 2715.8889,2853.1723 c 675.1655,-137.8835 1334.6243,6.2308 1715.2606,343.3927 -443.6848,-176.8556 -1089.1422,-312.6221 -1715.2606,-343.3927 z"
         id="path31"
         sodipodi:nodetypes="ccc"
         inkscape:label="Cross-horizonal" /><path
         style="fill:url(#linearGradient118);fill-opacity:1;stroke:none;stroke-width:1.0544;stroke-linecap:square;stroke-linejoin:miter;stroke-miterlimit:3.5;stroke-dasharray:none;stroke-dashoffset:0;stroke-opacity:1"
         d="m 3918.1293,3788.1709 c -35.7242,-671.0082 -508.5486,-1610.355 -907.948,-2119.8495 -41.0178,-52.3244 -18.6405,-50.1168 15.5908,-9.5563 569.8278,675.1861 1046.2739,1486.2519 1116.2609,2275.2591 -86.4086,10.8743 -180.7307,-81.0196 -223.9037,-145.8533 z"
         id="path32"
         sodipodi:nodetypes="csscc"
         inkscape:label="Cross-Vertical" /><path
         style="fill:url(#swatch54);fill-opacity:1;stroke:none;stroke-width:8.54025;stroke-linecap:round;stroke-linejoin:round;stroke-miterlimit:3.5;stroke-dasharray:0.854025, 12.8104;stroke-dashoffset:0;stroke-opacity:1"
         d="m 1839.3706,2460.5802 c 178.5151,54.0639 318.7555,184.5731 390.4632,356.2388 68.7326,164.5441 62.2975,217.8042 -131.1436,153.4111 -193.4412,-64.3931 -341.7781,-202.6792 -398.1387,-381.6314 -56.3605,-178.9524 -39.6959,-182.0826 138.8191,-128.0185 z"
         id="path33"
         sodipodi:nodetypes="zszzz"
         inkscape:label="GreenLeaf" /><path
         style="fill:url(#linearGradient12);fill-opacity:1;stroke:none;stroke-width:8.54025;stroke-linecap:round;stroke-linejoin:round;stroke-miterlimit:3.5;stroke-dasharray:none;stroke-opacity:1"
         d="m 3429.6415,1075.0422 c -689.3412,719.879 -865.903,1480.8123 -1018.0326,2066.6235 l -324.9648,120.4901 C 2204.038,2796.0377 2525.4794,1814.9591 3429.6415,1075.0422 Z"
         id="path34"
         sodipodi:nodetypes="cccc"
         inkscape:label="GreenStem" /><path
         id="path35"
         style="font-weight:bold;font-size:2678.88px;font-family:'DM Sans';-inkscape-font-specification:'DM Sans Bold';text-align:center;letter-spacing:0px;word-spacing:0px;text-anchor:middle;fill:url(#linearGradient117);stroke-width:418.888;stroke-miterlimit:3.5"
         inkscape:label="TextLogo"
         d="m 10689.035,10443.214 c -22.189,-0.25 -23.337,6.968 -15.705,39.609 9.392,40.175 40.808,65.532 84.109,70.59 43.302,5.057 45.858,-8.162 33.323,-44.183 -13.079,-37.582 -42.785,-61.499 -82.854,-64.871 -7.512,-0.633 -13.752,-1.087 -18.873,-1.145 z m -3668.5409,15.207 v 536.178 h 86.5547 l 6.127,-66.639 h 3.0644 c 9.7021,15.83 21.192,29.361 34.4688,40.596 13.7875,11.234 29.3606,19.915 46.7226,26.043 17.8723,6.127 37.2784,9.191 58.2149,9.191 36.2557,0 67.6593,-8.426 94.2129,-25.277 26.5535,-17.362 47.2364,-41.107 62.0449,-71.235 14.8088,-30.128 22.2129,-64.342 22.2129,-102.64 0,-38.809 -7.4041,-73.021 -22.2129,-102.639 -14.8085,-30.128 -35.7463,-53.617 -62.8105,-70.469 -27.0643,-17.362 -59.2347,-26.043 -96.5118,-26.043 -29.6172,0 -55.4057,5.873 -77.3632,17.618 -21.4472,11.234 -38.5522,24.765 -51.3184,40.595 v -205.279 z m 1538.7461,0 v 205.279 c -12.7662,-15.83 -30.128,-29.361 -52.0859,-40.595 -21.4472,-11.745 -46.9804,-17.618 -76.5977,-17.618 -37.277,0 -69.4474,8.681 -96.5117,26.043 -27.064,16.852 -47.9998,40.341 -62.8086,70.469 -14.8086,30.128 -22.2129,64.34 -22.2129,102.639 0,38.298 7.4043,72.512 22.2129,102.64 14.8088,30.128 35.4896,53.873 62.043,71.235 26.5536,16.851 57.7039,25.277 93.4492,25.277 21.4469,0 40.8511,-3.064 58.2129,-9.191 17.3622,-6.128 32.9371,-14.809 46.7246,-26.043 13.7875,-11.235 25.532,-24.766 35.2344,-40.596 h 3.0625 l 5.3633,66.639 h 87.3203 v -536.178 z m 1747.5118,0 v 536.178 h 334.557 v -80.426 h -231.153 v -415.752 z m 747.5,0 c -27.064,0 -50.554,4.341 -70.469,13.022 -19.915,8.68 -35.49,22.467 -46.724,41.361 -10.724,18.894 -16.086,44.427 -16.086,76.597 v 25.278 h -71.321 v 82.724 h 71.321 v 297.196 h 103.406 v -297.196 h 80.426 v -82.724 h -80.426 v -26.809 c 0,-15.83 3.573,-27.064 10.723,-33.703 7.149,-6.638 18.893,-9.957 35.234,-9.957 h 26.043 v -85.789 z m -4380.8301,0.867 c -120.6375,158.796 -181.7324,346.878 -181.7324,538.713 h 100.5878 c 0,-48.592 9.851,-107.553 18.6895,-154.838 h 247.2383 c 8.8387,47.285 18.6875,106.246 18.6875,154.838 h 100.5898 c 0,-191.835 -61.0951,-379.917 -181.7324,-538.713 z m 2972.7285,51.985 -91.916,40 -3.4883,63.406 h -53.1074 v 82.724 h 45.1074 v 161.62 c 0,34.213 5.6152,61.277 16.8496,81.193 11.2342,19.404 26.8096,33.446 46.7246,42.127 20.4259,8.17 44.1721,12.256 71.2363,12.256 h 67.4043 l -20,-85.789 h -28.2558 c -18.3835,0 -31.405,-3.319 -39.0645,-9.957 -7.6597,-7.149 -11.4902,-19.916 -11.4902,-38.299 v -163.151 h 81.1094 l -20,-82.724 h -61.1094 z m -2911.5664,39.691 c 41.6581,58.579 74.1204,126.493 97.4394,191.611 h -194.875 c 23.3191,-65.118 55.7771,-133.032 97.4356,-191.611 z m 1344.6504,54.523 c -69.7558,0 -87.8899,33.113 -108.6836,71.235 h -3.0645 l -9.1914,-62.043 h -88.0859 v 379.92 h 103.4062 v -196.088 c 0,-79.483 30.0609,-105.703 62.3828,-105.703 32.3219,0 67.6622,9.374 67.6622,98.043 v 203.748 h 103.4062 v -212.94 c 0,-117.07 -36.5151,-176.172 -127.832,-176.172 z m 823.7558,0 c -32.6812,0 -62.043,5.618 -88.0859,16.852 -25.5323,11.234 -46.2129,27.063 -62.043,47.488 -15.3192,20.426 -24.5121,44.682 -27.5761,72.768 h 100.3418 c 3.5746,-18.894 12.2557,-32.681 26.0429,-41.361 14.2982,-9.192 31.4052,-13.788 51.3203,-13.788 16.8512,0 30.6396,3.064 41.3633,9.192 11.2341,6.128 19.4031,15.319 24.5098,27.574 5.6171,12.256 8.4258,27.831 8.4258,46.725 h -95.7461 c -37.2771,0 -68.1704,5.105 -92.6817,15.318 -24.5108,9.702 -42.8949,23.491 -55.1504,41.363 -11.7448,17.873 -17.6171,38.554 -17.6171,62.043 0,20.937 4.5957,40.086 13.7871,57.448 9.1915,17.362 23.4899,31.15 42.8945,41.363 19.9152,10.212 44.9365,15.318 75.0644,15.318 13.7875,0 27.0659,-1.532 39.8321,-4.596 12.7661,-2.553 24.7659,-6.638 36,-12.255 11.2344,-5.617 21.4472,-12.767 30.6386,-21.448 9.7024,-8.681 18.6382,-18.639 26.8086,-29.873 h 3.0645 l 10.7226,58.981 h 85.7891 v -233.621 c 0,-33.192 -7.1491,-61.277 -21.4473,-84.256 -14.298,-23.49 -34.724,-41.107 -61.2773,-52.852 -26.5537,-12.255 -58.2141,-18.383 -94.9805,-18.383 z m 440.1778,0 c -69.7487,0 -87.8884,33.11 -108.6836,71.235 h -3.0625 l -9.1914,-62.043 h -88.0879 v 379.92 h 103.4062 v -196.088 c 0,-79.41 30.5162,-105.703 70.3848,-105.703 24.8873,0 59.6602,4.981 59.6602,98.043 v 203.748 H 9471 v -212.94 c 0,-117.173 -36.6012,-176.172 -127.832,-176.172 z m 1966.832,0 c -39.32,0 -74.044,8.681 -104.172,26.043 -29.617,17.362 -52.852,41.362 -69.703,72 -16.341,30.128 -24.512,65.108 -24.512,104.938 0,38.298 8.426,72.258 25.278,101.875 16.851,29.617 40.085,52.597 69.703,68.937 30.128,16.341 64.597,24.51 103.406,24.51 30.639,0 58.214,-5.617 82.725,-16.851 24.511,-11.744 45.191,-27.319 62.043,-46.723 16.851,-19.916 28.85,-41.875 36,-65.875 h -104.938 c -6.638,13.277 -16.341,24.256 -29.107,32.937 -12.766,8.171 -28.595,12.256 -47.489,12.256 -18.383,0 -34.98,-4.085 -49.789,-12.256 -14.298,-8.17 -25.533,-19.66 -33.703,-34.468 -6.568,-12.316 -9.765,-26.949 -11.053,-42.895 h 286.038 c 0.511,-6.638 0.765,-13.021 0.765,-19.148 0.511,-6.639 0.766,-12.511 0.766,-17.617 0,-35.746 -8.171,-67.661 -24.512,-95.747 -16.341,-28.596 -38.808,-51.065 -67.404,-67.406 -28.596,-16.34 -62.044,-24.51 -100.342,-24.51 z m -3833.9238,9.192 v 212.939 c 0,119.032 37.5623,176.172 127.832,176.172 47.9542,0 78.9003,-15.32 108.6816,-69.703 h 3.0645 l 9.1914,60.512 h 88.0859 v -379.92 h -103.4062 v 196.088 c 0,57.974 -9.8284,105.703 -70.3828,105.703 -31.8809,0 -60.4278,-10.236 -60.4278,-98.043 v -203.748 z m 3219.6168,0 v 379.92 h 103.407 v -379.92 z m 615.073,72.767 c 24,0 43.916,7.148 59.746,21.446 16.34,14.298 25.276,33.449 26.808,57.449 h -180.931 c 2.144,-11.442 5.309,-21.864 10.121,-30.639 8.681,-16.34 20.426,-28.342 35.234,-36.002 14.809,-8.17 31.149,-12.254 49.022,-12.254 z m -4084.9926,2.297 c 20.9363,0 39.0634,4.851 54.3828,14.553 15.8299,9.702 27.8318,23.236 36.002,40.598 8.681,16.851 13.0215,36.51 13.0215,58.978 0,22.979 -4.3405,42.895 -13.0215,59.746 -8.1702,16.852 -20.1721,30.383 -36.002,40.596 -15.3194,9.702 -33.4465,14.555 -54.3828,14.555 -20.4257,0 -38.5549,-4.853 -54.3847,-14.555 -15.8302,-9.702 -28.0846,-22.979 -36.7657,-39.83 -8.6807,-17.362 -13.0214,-37.278 -13.0214,-59.746 0,-22.979 4.3407,-42.893 13.0214,-59.744 8.6811,-17.362 20.9355,-30.896 36.7657,-40.598 15.8298,-9.702 33.959,-14.553 54.3847,-14.553 z m 1230.8262,0 c 20.9366,0 39.3205,4.851 55.1504,14.553 15.8302,9.702 27.8296,23.236 36,40.598 8.6808,16.851 13.0215,36.51 13.0215,58.978 0,22.979 -4.3407,43.15 -13.0215,60.512 -8.1704,16.851 -20.1698,30.128 -36,39.83 -15.3192,9.702 -33.4465,14.555 -54.3828,14.555 -20.9365,0 -39.3206,-4.853 -55.1504,-14.555 -15.3195,-9.702 -27.3192,-22.979 -36,-39.83 -8.1704,-17.362 -12.2559,-37.533 -12.2559,-60.512 0,-22.468 4.0855,-42.127 12.2559,-58.978 8.6808,-17.362 20.6805,-30.896 36,-40.598 15.8298,-9.702 33.9572,-14.553 54.3828,-14.553 z m 436.4336,144.768 h 79.6602 c -1.532,11.745 -4.5958,23.234 -9.1914,34.469 -4.0851,10.723 -9.9575,20.171 -17.6172,28.341 -7.6598,8.171 -16.8509,14.808 -27.5743,19.914 -10.213,4.596 -22.4696,6.895 -36.7675,6.895 -10.7238,0 -20.4265,-1.532 -29.1075,-4.596 -8.681,-3.574 -15.3183,-8.682 -19.914,-15.32 -4.5957,-6.638 -6.8945,-14.553 -6.8945,-23.744 0,-9.192 2.2988,-17.108 6.8945,-23.746 4.5957,-7.149 11.7452,-12.51 21.4473,-16.084 10.213,-4.085 23.2346,-6.129 39.0644,-6.129 z"
         sodipodi:nodetypes="scscsscccccccscssccscccccccscssscssscccccccccccccsscsccccccccccsssccscccccccccccccccsccsccscscccccccccsccccccszsccssscccccscccsccsscscscccccsccssccccccsssccsssccsscscccccscccccscsscssccccccssscccccccscccccssccsccsscscsssscsccsccsccssccscscssccs"
         transform="translate(-6025.592,-7208.2913)" /></g><g
       id="g191"
       inkscape:label="Logo01"
       transform="matrix(0.41206608,0,0,0.41206608,5786.2516,16239.7)"
       style="fill:url(#linearGradient194)"><path
         id="path185"
         clip-path="none"
         mask="none"
         style="display:inline;fill:url(#linearGradient191);fill-opacity:1;stroke:none;stroke-width:14.9994;stroke-linecap:round;stroke-linejoin:round;stroke-miterlimit:3.5;stroke-dasharray:1.49994, 59.9975;stroke-dashoffset:0;stroke-opacity:1"
         inkscape:label="Sun2"
         d="m 3235.6605,1323.2074 c -69.7243,83.9911 -152.2482,203.7214 -224.5541,309.2406 27.7906,18.3669 473.564,531.4599 742.1865,1065.8575 122.348,10.6547 300.1395,29.684 446.1241,57.0078 111.7477,20.9157 203.0108,44.3961 278.5664,68.5743 0.3739,-11.3138 0.985,-22.6152 1.1035,-33.9395 0,-23.8418 -0.6412,-47.6169 -1.7656,-71.3242 -313.2701,-49.2071 -652.4433,-63.9805 -652.4433,-63.9805 0,0 109.0307,-14.0143 275.8925,-14.3965 105.396,-0.2415 233.9224,5.0317 372.5645,22.6348 -29.8745,-352.462 -182.8821,-684.7763 -434.9199,-936.8144 -225.6479,-225.6479 -491.5761,-353.2012 -802.7546,-402.8599 z m -259.8308,370.2301 c -219.6103,380.1571 -309.963,600.8754 -446.6752,1054.5413 144.2419,-18.6163 299.2208,-25.0913 445.3875,-25.3608 209.1142,0.018 398.3806,17.4751 602.9067,54.7455 -8.4591,-20.5902 -17.554,-40.9968 -26.3125,-61.5195 -201.6756,-18.1091 -342.3637,-22.017 -342.3637,-22.017 0,0 81.3279,-8.5013 220.1973,-9.1953 38.0455,-0.1902 62.511,-1.3857 108.7055,-0.069 -173.0869,-398.1077 -352.8918,-724.3182 -561.8456,-991.1253 z m 805.0867,1053.6847 c 15.8987,31.2848 33.2525,68.3742 47.7106,98.3162 201.603,53.5316 434.5832,118.6733 624.3857,208.0996 9.6229,-50.9293 16.2728,-102.3264 20.5899,-153.9278 -99.4058,-32.4019 -216.0453,-67.026 -352.4297,-100.3027 -92.0617,-22.4622 -234.5834,-37.9956 -340.2565,-52.1853 z"
         sodipodi:nodetypes="cccsccccscscccccccsccccccsc" /><path
         id="path186"
         clip-path="none"
         mask="none"
         style="display:inline;fill:url(#linearGradient192);fill-opacity:1;stroke:none;stroke-width:14.9994;stroke-linecap:round;stroke-linejoin:round;stroke-miterlimit:3.5;stroke-dasharray:1.49994, 59.9975;stroke-dashoffset:0;stroke-opacity:1"
         inkscape:label="Sun"
         d="m 2974.5348,1285.3945 c -399.0315,0 -781.7207,158.5145 -1063.8786,440.6724 -282.1578,282.158 -440.6744,664.8492 -440.6743,1063.8806 0.9589,89.3486 9.8754,178.4347 26.6439,266.2009 146.612,-69.3934 224.5006,-108.1645 378.5582,-156.1083 -136.9822,-93.9806 -213.4451,-272.5044 -226.6209,-422.8696 -13.1758,-150.3652 288.5913,15.9044 335.8497,39.089 7.0133,-37.1622 18.9332,-87.9206 34.3979,-128.1491 54.4328,-141.5968 95.7285,-59.4824 126.9301,-16.6307 31.2015,42.8515 67.5899,105.6303 80.3721,162.1134 198.0111,-392.065 442.2388,-798.5909 837.5621,-1169.9268 25.9,-24.3284 50.8431,-47.0925 75.0329,-68.8209 -54.2742,-6.0541 -109.0319,-9.4509 -164.1731,-9.4509 z m 221.8053,16.9856 c -425.2339,491.9106 -690.1341,950.3503 -955.7784,1500.548 306.8487,-433.797 618.2137,-1022.9012 972.6535,-1498.1644 -5.6029,-0.9006 -11.2592,-1.5431 -16.8751,-2.3836 z"
         sodipodi:nodetypes="ssccczcsscscscccc" /><path
         style="fill:#ffffff;fill-opacity:1;stroke:none;stroke-width:8.54025;stroke-linecap:round;stroke-linejoin:round;stroke-miterlimit:3.5;stroke-dasharray:0.854025, 12.8104;stroke-dashoffset:0;stroke-opacity:1"
         d="m 2655.2395,2828.199 c 678.7331,-77.2341 1395.2737,31.2041 1775.91,368.366 -443.6848,-176.8556 -1131.9535,-309.0545 -1775.91,-368.366 z"
         id="path187"
         sodipodi:nodetypes="ccc"
         inkscape:label="Cross-horizonal" /><path
         style="fill:#ffffff;fill-opacity:1;stroke:none;stroke-width:1.0544;stroke-linecap:square;stroke-linejoin:miter;stroke-miterlimit:3.5;stroke-dasharray:none;stroke-dashoffset:0;stroke-opacity:1"
         d="m 3918.1293,3788.1709 c -35.7242,-671.0082 -525.0488,-1631.7607 -924.4482,-2141.2552 -41.0178,-52.3244 -18.6405,-50.1168 15.5908,-9.5563 569.8278,675.1861 1062.7741,1507.6576 1132.7611,2296.6648 -86.4086,10.8743 -180.7307,-81.0196 -223.9037,-145.8533 z"
         id="path188"
         sodipodi:nodetypes="csscc"
         inkscape:label="Cross-Vertical" /><path
         style="fill:#ffffff;fill-opacity:1;stroke:none;stroke-width:8.54025;stroke-linecap:round;stroke-linejoin:round;stroke-miterlimit:3.5;stroke-dasharray:0.854025, 12.8104;stroke-dashoffset:0;stroke-opacity:1"
         d="m 1839.3706,2460.5802 c 178.5151,54.0639 318.7555,184.5731 390.4632,356.2388 68.7326,164.5441 62.2975,217.8042 -131.1436,153.4111 -193.4412,-64.3931 -341.7781,-202.6792 -398.1387,-381.6314 -56.3605,-178.9524 -39.6959,-182.0826 138.8191,-128.0185 z"
         id="path189"
         sodipodi:nodetypes="zszzz"
         inkscape:label="GreenLeaf" /><path
         style="fill:#ffffff;fill-opacity:1;stroke:none;stroke-width:8.54025;stroke-linecap:round;stroke-linejoin:round;stroke-miterlimit:3.5;stroke-dasharray:none;stroke-opacity:1"
         d="m 3429.6415,1075.0422 c -689.3412,719.879 -865.903,1480.8123 -1018.0326,2066.6235 l -324.9648,120.4901 C 2204.038,2796.0377 2525.4794,1814.9591 3429.6415,1075.0422 Z"
         id="path190"
         sodipodi:nodetypes="cccc"
         inkscape:label="GreenStem" /><path
         id="path191"
         style="font-weight:bold;font-size:2678.88px;font-family:'DM Sans';-inkscape-font-specification:'DM Sans Bold';text-align:center;letter-spacing:0px;word-spacing:0px;text-anchor:middle;fill:#ffffff;stroke-width:383.919;stroke-miterlimit:3.5"
         inkscape:label="TextLogo"
         d="m 11625.885,15496.516 c -20.335,-0.227 -21.389,6.387 -14.394,36.305 8.606,36.822 37.4,60.062 77.086,64.697 39.689,4.634 42.031,-7.481 30.544,-40.496 -11.991,-34.444 -39.215,-56.365 -75.939,-59.454 -6.886,-0.58 -12.604,-0.996 -17.297,-1.052 z m -3123.3924,13.938 v 491.422 h 79.3297 l 5.6154,-61.075 h 2.8086 c 8.8921,14.507 19.4227,26.908 31.5914,37.204 12.6365,10.296 26.9096,18.252 42.8224,23.871 16.3802,5.614 34.1662,8.423 53.3549,8.423 33.2292,0 62.0116,-7.724 86.3485,-23.166 24.3368,-15.913 43.2931,-37.678 56.8655,-65.29 13.5726,-27.614 20.3587,-58.97 20.3587,-94.071 0,-35.57 -6.7861,-66.927 -20.3587,-94.071 -13.5724,-27.612 -32.7623,-49.143 -57.5671,-64.586 -24.8052,-15.913 -54.29,-23.871 -88.4554,-23.871 -27.1448,0 -50.7805,5.383 -70.9052,16.146 -19.6568,10.3 -35.3338,22.7 -47.0343,37.21 v -188.146 z m 1439.6237,0 v 188.146 c -11.7003,-14.51 -27.6128,-26.91 -47.7377,-37.21 -19.657,-10.763 -43.0586,-16.146 -70.2037,-16.146 -34.1651,0 -63.6497,7.958 -88.4549,23.871 -24.8047,15.443 -43.9929,36.974 -57.5654,64.586 -13.5725,27.612 -20.3587,58.969 -20.3587,94.071 0,35.101 6.7862,66.457 20.3587,94.071 13.5725,27.612 32.5271,49.377 56.8636,65.29 24.3371,15.442 52.8869,23.166 85.6485,23.166 19.6565,0 37.4408,-2.809 53.3531,-8.423 15.9129,-5.619 30.1878,-13.575 42.8244,-23.871 12.6365,-10.296 23.4006,-22.697 32.293,-37.204 h 2.8068 l 4.9156,61.075 h 80.0314 v -491.422 z m 1324.2317,0 v 491.422 h 315.795 v -73.714 h -221.022 v -381.046 z m 675.936,0 c -24.805,0 -46.335,3.98 -64.586,11.935 -18.254,7.956 -32.528,20.593 -42.827,37.909 -9.828,17.315 -14.741,40.72 -14.741,70.206 v 23.166 h -47.036 v 75.819 h 47.036 v 272.387 h 94.772 v -272.387 h 73.714 v -75.819 h -73.714 v -24.572 c 0,-14.507 3.277,-24.807 9.83,-30.887 6.554,-6.087 17.318,-9.127 32.292,-9.127 h 23.869 v -78.63 z m -3757.8904,0.797 c -110.5672,145.541 -166.562,317.921 -166.562,493.742 h 92.1911 c 0,-44.537 9.0285,-98.574 17.1292,-141.912 h 226.5995 c 8.1006,43.338 17.1274,97.375 17.1274,141.912 h 92.193 c 0,-175.821 -55.9952,-348.201 -166.5619,-493.742 z m 2768.5644,47.644 -84.243,36.66 -3.197,58.115 h -48.675 v 75.819 h 41.344 v 148.127 c 0,31.357 5.146,56.164 15.441,74.416 10.296,17.786 24.572,30.651 42.826,38.609 18.72,7.487 40.484,11.235 65.289,11.235 h 61.776 l -18.33,-78.629 h -25.895 c -16.851,0 -28.786,-3.041 -35.805,-9.126 -7.021,-6.553 -10.531,-18.252 -10.531,-35.101 v -149.531 h 74.338 l -18.331,-75.819 h -56.007 z m -2712.5081,36.378 c 38.1805,53.689 67.9329,115.934 89.3054,175.615 h -178.6076 c 21.3728,-59.681 51.1212,-121.926 89.3022,-175.615 z m 1254.3984,49.971 c -63.9328,0 -87.8852,30.349 -106.943,65.289 h -2.8087 l -8.4242,-56.863 h -80.7326 v 348.206 h 94.774 v -179.72 c 0,-72.849 46.3659,-96.881 82.8378,-96.881 22.7759,0 51.0156,4.543 51.0156,89.859 v 186.742 h 94.7744 v -195.165 c 0,-107.298 -40.7993,-161.467 -124.4933,-161.467 z m 762.3227,0 c -29.953,0 -56.864,5.149 -80.733,15.446 -23.4,10.296 -42.355,24.804 -56.863,43.524 -14.041,18.72 -22.466,40.95 -25.275,66.695 h 91.966 c 3.276,-17.319 11.232,-29.953 23.869,-37.91 13.105,-8.424 28.783,-12.636 47.036,-12.636 15.445,0 28.082,2.807 37.91,8.424 10.297,5.616 17.784,14.038 22.464,25.273 5.148,11.231 7.723,25.507 7.723,42.822 h -87.754 c -34.165,0 -62.48,4.68 -84.945,14.041 -22.464,8.893 -39.314,21.531 -50.546,37.91 -10.765,16.381 -16.147,35.335 -16.147,56.865 0,19.188 4.212,36.738 12.636,52.65 8.425,15.913 21.529,28.553 39.314,37.911 18.253,9.36 41.185,14.04 68.798,14.04 12.637,0 24.807,-1.405 36.507,-4.212 11.701,-2.339 22.699,-6.086 32.995,-11.233 10.297,-5.148 19.657,-11.701 28.081,-19.658 8.893,-7.954 17.083,-17.082 24.571,-27.378 h 2.809 l 9.827,54.058 h 78.628 v -214.12 c 0,-30.423 -6.553,-56.16 -19.657,-77.223 -13.105,-21.529 -31.826,-37.674 -56.162,-48.439 -24.337,-11.233 -53.355,-16.85 -87.052,-16.85 z m 410.765,0 c -63.926,0 -87.884,30.348 -106.943,65.289 h -2.807 l -8.424,-56.863 h -80.735 v 348.206 h 94.774 v -179.72 c 0,-72.783 35.302,-96.881 71.842,-96.881 22.809,0 62.012,4.567 62.012,89.859 v 186.742 h 94.774 v -195.165 c 0,-107.392 -40.879,-161.467 -124.493,-161.467 z m 1527.076,0 c -36.036,0 -67.862,7.958 -95.474,23.871 -27.146,15.911 -48.441,37.909 -63.886,65.988 -14.976,27.615 -22.466,59.673 -22.466,96.18 0,35.1 7.724,66.225 23.169,93.371 15.444,27.142 36.738,48.205 63.884,63.181 27.612,14.977 59.203,22.464 94.773,22.464 28.082,0 53.357,-5.148 75.821,-15.445 22.463,-10.764 41.418,-25.036 56.864,-42.822 15.445,-18.252 26.44,-38.379 32.995,-60.376 h -96.18 c -6.082,12.169 -14.975,22.233 -26.678,30.187 -11.701,7.489 -26.207,11.235 -43.525,11.235 -16.847,0 -32.058,-3.746 -45.631,-11.235 -13.106,-7.488 -23.401,-18.018 -30.89,-31.592 -6.021,-11.287 -8.951,-24.699 -10.131,-39.313 h 262.161 c 0.47,-6.083 0.702,-11.933 0.702,-17.549 0.47,-6.086 0.703,-11.465 0.703,-16.146 0,-32.762 -7.49,-62.013 -22.467,-87.754 -14.976,-26.211 -35.569,-46.804 -61.778,-61.781 -26.208,-14.976 -56.865,-22.464 -91.966,-22.464 z m -3274.9681,8.426 v 195.163 c 0,109.095 41.7589,161.466 124.4929,161.466 43.9513,0 79.6463,-14.042 106.9415,-63.884 h 2.8087 l 8.424,55.461 h 80.7328 v -348.206 h -94.774 v 179.719 c 0,53.133 -16.3403,96.88 -71.8398,96.88 -29.2194,0 -62.7156,-9.384 -62.7156,-89.86 v -186.739 z m 2711.9431,0 v 348.206 h 94.777 v -348.206 z m 563.729,66.693 c 21.995,0 40.248,6.551 54.756,19.654 14.978,13.107 23.166,30.656 24.572,52.656 h -165.828 c 1.965,-10.49 4.868,-20.042 9.275,-28.083 7.959,-14.978 18.722,-25.975 32.294,-32.996 13.573,-7.487 28.55,-11.231 44.931,-11.231 z m -3505.0803,2.103 c 19.1887,0 35.8026,4.448 49.8433,13.34 14.5085,8.894 25.5083,21.295 32.9965,37.21 7.9563,15.443 11.9344,33.46 11.9344,54.053 0,21.06 -3.9781,39.316 -11.9344,54.758 -7.4882,15.445 -18.488,27.848 -32.9965,37.209 -14.0407,8.891 -30.6546,13.339 -49.8433,13.339 -18.7205,0 -35.3363,-4.448 -49.8446,-13.339 -14.5089,-8.894 -25.7402,-21.064 -33.6967,-36.506 -7.956,-15.913 -11.9344,-34.167 -11.9344,-54.758 0,-21.061 3.9784,-39.313 11.9344,-54.756 7.9565,-15.915 19.1878,-28.316 33.6967,-37.21 14.5083,-8.892 31.1241,-13.34 49.8446,-13.34 z m 1157.4085,0 c 19.1887,0 36.0379,4.448 50.5466,13.34 14.5087,8.894 25.5062,21.295 32.9947,37.21 7.9562,15.443 11.9345,33.46 11.9345,54.053 0,21.06 -3.9783,39.548 -11.9345,55.461 -7.4885,15.442 -18.486,27.612 -32.9947,36.506 -14.0405,8.891 -30.6544,13.339 -49.8431,13.339 -19.1889,0 -36.0381,-4.448 -50.5466,-13.339 -14.0406,-8.894 -25.0386,-21.064 -32.9947,-36.506 -7.4885,-15.913 -11.2329,-34.401 -11.2329,-55.461 0,-20.593 3.7444,-38.61 11.2329,-54.053 7.9561,-15.915 18.9541,-28.316 32.9947,-37.21 14.5085,-8.892 31.1224,-13.34 49.8431,-13.34 z m 400.0008,132.684 h 73.011 c -1.405,10.766 -4.212,21.295 -8.425,31.592 -3.744,9.83 -9.126,18.487 -16.146,25.975 -7.02,7.489 -15.444,13.572 -25.272,18.252 -9.361,4.214 -20.595,6.318 -33.699,6.318 -9.828,0 -18.721,-1.402 -26.678,-4.209 -7.956,-3.28 -14.039,-7.96 -18.251,-14.042 -4.212,-6.083 -6.319,-13.338 -6.319,-21.762 0,-8.425 2.107,-15.681 6.319,-21.765 4.212,-6.551 10.764,-11.465 19.657,-14.741 9.36,-3.745 21.295,-5.618 35.803,-5.618 z"
         sodipodi:nodetypes="csscsccccccccscssccscccccccscssscscscccccccccccccsscsccccccccccsssccscccccccccccccccsccsccscscccccccccsccccccsssccssscccccscccsccsscscccccccsccssccccccsssccsssccsscscccccscccccsccscssccccccssscccccccscccccssccsccsscscsssscsccsccsccssccscscssccs"
         transform="matrix(2.4267952,0,0,2.4267952,-14042.048,-35781.55)" /></g></g></svg>
