<?xml version="1.0" encoding="UTF-8" standalone="no"?><!DOCTYPE svg PUBLIC "-//W3C//DTD SVG 1.1//EN" "http://www.w3.org/Graphics/SVG/1.1/DTD/svg11.dtd"><svg width="100%" height="100%" viewBox="0 0 6000 1100" version="1.1" xmlns="http://www.w3.org/2000/svg" xmlns:xlink="http://www.w3.org/1999/xlink" xml:space="preserve" xmlns:serif="http://www.serif.com/" style="fill-rule:evenodd;clip-rule:evenodd;stroke-linejoin:round;stroke-miterlimit:2;"><g id="Image"><g id="Logo01"><path id="Sun2" d="M760.349,86.657c-26.626,32.074 -58.14,77.796 -85.752,118.091c10.613,7.014 180.842,202.951 283.422,407.024c46.722,4.069 114.616,11.336 170.364,21.77c42.674,7.987 77.525,16.954 106.378,26.187c0.143,-4.32 0.376,-8.636 0.421,-12.961c0,-9.105 -0.245,-18.184 -0.674,-27.237c-119.63,-18.791 -249.152,-24.433 -249.152,-24.433c0,0 41.636,-5.352 105.356,-5.498c40.248,-0.092 89.329,1.921 142.273,8.644c-11.408,-134.596 -69.838,-261.499 -166.085,-357.746c-86.169,-86.169 -187.721,-134.879 -306.552,-153.842Zm-99.223,141.382c-83.864,145.172 -118.367,229.459 -170.574,402.703c55.082,-7.109 114.265,-9.582 170.082,-9.685c79.855,0.007 152.132,6.673 230.235,20.906c-3.23,-7.863 -6.703,-15.656 -10.048,-23.493c-77.015,-6.915 -130.74,-8.408 -130.74,-8.408c0,0 31.057,-3.246 84.088,-3.511c14.529,-0.073 23.871,-0.529 41.512,-0.026c-66.098,-152.027 -134.761,-276.599 -214.555,-378.486l0,0Zm307.442,402.376c6.071,11.947 12.698,26.11 18.219,37.544c76.987,20.442 165.956,45.318 238.437,79.468c3.675,-19.449 6.214,-39.076 7.863,-58.781c-37.961,-12.373 -82.502,-25.596 -134.584,-38.303c-35.156,-8.578 -89.582,-14.51 -129.935,-19.928Z" style="fill:url(#_Linear1);fill-rule:nonzero;"/><path id="Sun" d="M660.631,72.218c-152.38,0 -298.519,60.533 -406.269,168.282c-107.749,107.749 -168.282,253.889 -168.282,406.269c0.366,34.12 3.771,68.14 10.175,101.655c55.987,-26.5 85.731,-41.305 144.562,-59.614c-52.31,-35.889 -81.509,-104.063 -86.541,-161.483c-5.032,-57.421 110.206,6.073 128.253,14.927c2.678,-14.191 7.23,-33.575 13.136,-48.937c20.787,-54.072 36.556,-22.715 48.471,-6.351c11.915,16.364 25.811,40.338 30.692,61.907c75.615,-149.72 168.88,-304.962 319.844,-446.766c9.891,-9.29 19.416,-17.983 28.653,-26.281c-20.726,-2.312 -41.637,-3.609 -62.694,-3.609Zm84.702,6.486c-162.386,187.848 -263.545,362.915 -364.988,573.022c117.178,-165.656 236.08,-390.62 371.432,-572.111c-2.14,-0.344 -4.3,-0.589 -6.444,-0.91Z" style="fill:url(#_Linear2);fill-rule:nonzero;"/><path id="Cross-horizonal" d="M538.701,661.376c259.191,-29.494 532.82,11.916 678.175,140.67c-169.432,-67.537 -432.265,-118.02 -678.175,-140.67Z" style="fill:#fff;fill-rule:nonzero;"/><path id="Cross-Vertical" d="M1020.966,1027.965c-13.642,-256.241 -200.503,-623.128 -353.024,-817.692c-15.664,-19.981 -7.118,-19.138 5.954,-3.649c217.603,257.837 405.847,575.737 432.573,877.039c-32.997,4.153 -69.017,-30.939 -85.503,-55.698Z" style="fill:#fff;fill-rule:nonzero;"/><path id="GreenLeaf" d="M227.141,520.991c68.17,20.646 121.725,70.484 149.108,136.039c26.247,62.835 23.79,83.174 -50.08,58.584c-73.87,-24.59 -130.516,-77.398 -152.039,-145.735c-21.523,-68.337 -15.159,-69.533 53.012,-48.887Z" style="fill:#fff;fill-rule:nonzero;"/><path id="GreenStem" d="M834.425,-8.111c-263.242,274.904 -330.667,565.485 -388.761,789.192l-124.096,46.012c44.83,-177.999 167.58,-552.648 512.857,-835.204Z" style="fill:#fff;fill-rule:nonzero;"/><path id="TextLogo" d="M5006.86,309.409c-19.045,-0.213 -20.032,5.982 -13.481,34.002c8.06,34.486 35.027,56.252 72.196,60.593c37.171,4.34 39.364,-7.006 28.606,-37.927c-11.23,-32.259 -36.727,-52.789 -71.122,-55.682c-6.449,-0.543 -11.804,-0.933 -16.2,-0.985Zm-2869.047,13.054l0,460.246l74.297,0l5.259,-57.2l2.63,0c8.328,13.587 18.19,25.201 29.587,34.844c11.835,9.643 25.202,17.094 40.106,22.357c15.341,5.258 31.999,7.889 49.97,7.889c31.121,0 58.078,-7.234 80.87,-21.696c22.793,-14.903 40.547,-35.288 53.258,-61.148c12.712,-25.862 19.067,-55.229 19.067,-88.103c0,-33.313 -6.356,-62.681 -19.067,-88.103c-12.711,-25.86 -30.684,-46.025 -53.915,-60.489c-23.232,-14.903 -50.846,-22.357 -82.844,-22.357c-25.423,0 -47.559,5.042 -66.407,15.122c-18.41,9.647 -33.092,21.26 -44.05,34.849l0,-176.21l-88.762,0Zm1348.292,0l0,176.21c-10.958,-13.589 -25.861,-25.203 -44.709,-34.849c-18.41,-10.08 -40.327,-15.122 -65.75,-15.122c-31.998,0 -59.612,7.453 -82.843,22.357c-23.231,14.463 -41.202,34.628 -53.913,60.489c-12.711,25.86 -19.067,55.228 -19.067,88.103c0,32.874 6.356,62.241 19.067,88.103c12.711,25.86 30.464,46.244 53.256,61.148c22.793,14.462 49.532,21.696 80.215,21.696c18.409,0 35.065,-2.631 49.968,-7.889c14.903,-5.263 28.273,-12.714 40.108,-22.357c11.835,-9.643 21.916,-21.257 30.244,-34.844l2.629,0l4.604,57.2l74.954,0l0,-460.246l-88.762,0Zm1184.028,0l0,460.246l295.76,0l0,-69.038l-207,0l0,-356.872l-88.76,-34.336Zm633.054,0c-23.231,0 -43.396,3.728 -60.489,11.178c-17.096,7.451 -30.464,19.287 -40.11,35.504c-9.204,16.217 -13.806,38.137 -13.806,65.752l0,21.696l-44.052,0l0,71.009l44.052,0l0,255.106l88.759,0l0,-255.106l69.038,0l0,-71.009l-69.038,0l0,-23.013c0,-13.587 3.069,-23.233 9.207,-28.927c6.138,-5.701 16.219,-8.548 30.243,-8.548l22.355,0l0,-73.642l-36.16,-0Zm-3463.292,0.746c-103.553,136.308 -155.995,297.752 -155.995,462.418l86.342,0c0,-41.712 8.456,-92.32 16.043,-132.909l212.224,0c7.587,40.589 16.041,91.197 16.041,132.909l86.344,0c0,-164.667 -52.443,-326.111 -155.995,-462.418l-105.004,0Zm2592.923,44.621l-78.899,34.334l-2.994,54.428l-45.587,0l0,71.009l38.721,0l0,138.73c0,29.368 4.819,52.601 14.461,69.695c9.643,16.658 23.013,28.706 40.109,36.16c17.533,7.012 37.916,10.522 61.147,10.522l57.857,0l-17.167,-73.641l-24.252,0c-15.782,0 -26.96,-2.848 -33.534,-8.547c-6.575,-6.137 -9.863,-17.094 -9.863,-32.874l0,-140.045l69.622,0l-17.168,-71.009l-52.454,0l0,-88.762Zm-2540.423,34.07c35.758,50.283 63.623,108.579 83.64,164.474l-167.276,0c20.017,-55.895 47.878,-114.191 83.637,-164.474Zm1174.818,46.801c-59.877,0 -82.31,28.424 -100.158,61.147l-2.631,0l-7.89,-53.256l-75.611,0l0,326.115l88.761,0l0,-168.318c0,-68.227 43.424,-90.735 77.582,-90.735c21.331,0 47.779,4.255 47.779,84.158l0,174.895l88.762,0l0,-182.784c0,-100.491 -38.211,-151.223 -116.595,-151.223Zm713.96,0c-28.052,0 -53.256,4.822 -75.611,14.466c-21.915,9.643 -39.668,23.23 -53.256,40.763c-13.15,17.532 -21.041,38.352 -23.672,62.464l86.131,0c3.068,-16.22 10.52,-28.053 22.355,-35.505c12.274,-7.89 26.957,-11.834 44.052,-11.834c14.465,0 26.301,2.629 35.505,7.89c9.644,5.26 16.656,13.147 21.039,23.67c4.821,10.518 7.233,23.889 7.233,40.105l-82.187,0c-31.998,0 -58.516,4.383 -79.556,13.15c-21.039,8.329 -36.82,20.165 -47.339,35.505c-10.082,15.342 -15.123,33.093 -15.123,53.257c0,17.971 3.945,34.407 11.834,49.31c7.891,14.903 20.163,26.742 36.82,35.506c17.095,8.766 38.572,13.149 64.434,13.149c11.836,0 23.233,-1.316 34.191,-3.945c10.959,-2.191 21.259,-5.7 30.902,-10.52c9.644,-4.821 18.41,-10.959 26.3,-18.411c8.329,-7.449 15.999,-15.998 23.012,-25.641l2.631,0l9.204,50.628l73.64,0l0,-200.536c0,-28.493 -6.137,-52.597 -18.41,-72.324c-12.274,-20.163 -29.807,-35.284 -52.599,-45.366c-22.793,-10.52 -49.97,-15.781 -81.53,-15.781Zm384.706,-0c-59.87,0 -82.309,28.423 -100.158,61.147l-2.629,0l-7.889,-53.256l-75.613,0l0,326.115l88.762,0l0,-168.318c0,-68.166 33.062,-90.735 67.284,-90.735c21.362,0 58.078,4.277 58.078,84.158l0,174.895l88.761,0l0,-182.784c0,-100.579 -38.286,-151.223 -116.595,-151.223Zm1374.003,0c-33.75,0 -63.557,7.453 -89.417,22.357c-25.424,14.902 -45.368,35.504 -59.833,61.802c-14.026,25.863 -21.041,55.887 -21.041,90.078c0,32.873 7.234,62.024 21.699,87.447c14.464,25.42 34.407,45.147 59.831,59.173c25.86,14.027 55.447,21.039 88.761,21.039c26.3,0 49.972,-4.821 71.011,-14.465c21.038,-10.081 38.79,-23.448 53.256,-40.105c14.465,-17.094 24.763,-35.944 30.902,-56.546l-90.078,0c-5.696,11.397 -14.025,20.822 -24.985,28.272c-10.959,7.014 -24.544,10.522 -40.764,10.522c-15.778,0 -30.024,-3.508 -42.736,-10.522c-12.275,-7.013 -21.917,-16.875 -28.93,-29.588c-5.639,-10.571 -8.383,-23.132 -9.488,-36.819l245.529,0c0.44,-5.697 0.658,-11.176 0.658,-16.436c0.44,-5.7 0.658,-10.738 0.658,-15.122c0,-30.684 -7.015,-58.079 -21.042,-82.187c-14.026,-24.548 -33.313,-43.835 -57.859,-57.862c-24.545,-14.026 -53.257,-21.039 -86.131,-21.039Zm-3011.007,7.891l0,182.782c0,102.174 39.11,151.222 116.595,151.222c41.163,0 74.593,-13.151 100.157,-59.831l2.63,0l7.89,51.942l75.611,0l0,-326.115l-88.761,0l0,168.317c0,49.762 -15.304,90.734 -67.282,90.734c-27.366,0 -58.737,-8.789 -58.737,-84.159l0,-174.892l-88.103,-0Zm2483.701,0l0,326.115l88.764,0l0,-326.115l-88.764,0Zm527.965,62.462c20.6,0 37.695,6.135 51.282,18.407c14.028,12.275 21.696,28.711 23.013,49.315l-155.307,0c1.84,-9.825 4.559,-18.77 8.686,-26.301c7.454,-14.028 17.534,-24.327 30.245,-30.903c12.712,-7.012 26.739,-10.518 42.08,-10.518Zm-3226.52,1.97c17.971,0 33.531,4.166 46.681,12.494c13.588,8.33 23.89,19.944 30.903,34.849c7.452,14.463 11.177,31.337 11.177,50.624c0,19.724 -3.726,36.822 -11.177,51.284c-7.013,14.465 -17.315,26.081 -30.903,34.848c-13.15,8.327 -28.71,12.493 -46.681,12.493c-17.533,0 -33.095,-4.166 -46.682,-12.493c-13.588,-8.33 -24.107,-19.728 -31.559,-34.19c-7.451,-14.903 -11.177,-31.999 -11.177,-51.284c0,-19.725 3.726,-36.819 11.177,-51.282c7.452,-14.905 17.971,-26.52 31.559,-34.849c13.588,-8.328 29.15,-12.494 46.682,-12.494Zm1083.981,0c17.971,0 33.752,4.166 47.34,12.494c13.588,8.33 23.888,19.944 30.901,34.849c7.451,14.463 11.177,31.337 11.177,50.624c0,19.724 -3.726,37.039 -11.177,51.942c-7.013,14.462 -17.313,25.86 -30.901,34.19c-13.15,8.327 -28.71,12.493 -46.681,12.493c-17.972,0 -33.752,-4.166 -47.34,-12.493c-13.15,-8.33 -23.45,-19.728 -30.901,-34.19c-7.013,-14.903 -10.52,-32.219 -10.52,-51.942c0,-19.287 3.507,-36.161 10.52,-50.624c7.451,-14.905 17.752,-26.52 30.901,-34.849c13.588,-8.328 29.148,-12.494 46.681,-12.494Zm374.624,124.266l68.379,0c-1.316,10.083 -3.945,19.944 -7.891,29.588c-3.507,9.206 -8.547,17.314 -15.122,24.327c-6.575,7.014 -14.464,12.711 -23.669,17.094c-8.767,3.947 -19.288,5.917 -31.561,5.917c-9.205,0 -17.533,-1.313 -24.985,-3.942c-7.451,-3.072 -13.148,-7.455 -17.093,-13.151c-3.945,-5.697 -5.918,-12.492 -5.918,-20.381c0,-7.89 1.974,-14.686 5.918,-20.384c3.945,-6.135 10.081,-10.738 18.41,-13.806c8.766,-3.507 19.944,-5.262 33.531,-5.262Z" style="fill:#fff;fill-rule:nonzero;"/></g></g><defs><linearGradient id="_Linear1" x1="0" y1="0" x2="1" y2="0" gradientUnits="userSpaceOnUse" gradientTransform="matrix(744.630191,0,0,744.630191,490.55189,417.0423)"><stop offset="0" style="stop-color:#dec1ac;stop-opacity:1"/><stop offset="1" style="stop-color:#dec1ac;stop-opacity:1"/></linearGradient><linearGradient id="_Linear2" x1="0" y1="0" x2="1" y2="0" gradientUnits="userSpaceOnUse" gradientTransform="matrix(665.69696,0,0,665.69696,86.080487,410.320806)"><stop offset="0" style="stop-color:#c4916c;stop-opacity:1"/><stop offset="1" style="stop-color:#c4916c;stop-opacity:1"/></linearGradient></defs></svg>